HIERARCHY
ROOT joint_Root
{
	OFFSET 0.0 0.0 0.0
	CHANNELS 6 Xposition Yposition Zposition Zrotation Xrotation Yrotation 
	JOINT Hips
	{
		OFFSET -0.726466 93.3139 -2.00062
		CHANNELS 6 Xposition Yposition Zposition Zrotation Xrotation Yrotation 
		JOINT Spine
		{
			OFFSET 15.7357 0.0 0.0
			CHANNELS 6 Xposition Yposition Zposition Zrotation Xrotation Yrotation 
			JOINT Chest
			{
				OFFSET 8.98455 -0.406207 0.0
				CHANNELS 6 Xposition Yposition Zposition Zrotation Xrotation Yrotation 
				JOINT Neck
				{
					OFFSET 16.3773 0.0 0.0
					CHANNELS 6 Xposition Yposition Zposition Zrotation Xrotation Yrotation 
					JOINT Head
					{
						OFFSET 6.45672 0.0 0.0
						CHANNELS 6 Xposition Yposition Zposition Zrotation Xrotation Yrotation 
						End Site
						{
							OFFSET 0.0 0.0 0.0
						}
					}
				}
				JOINT Shoulder_L
				{
					OFFSET 12.9942 -0.242716 4.98039
					CHANNELS 6 Xposition Yposition Zposition Zrotation Xrotation Yrotation 
					JOINT UpperArm_L
					{
						OFFSET 5.34809 0.0 0.0
						CHANNELS 6 Xposition Yposition Zposition Zrotation Xrotation Yrotation 
						JOINT LowerArm_L
						{
							OFFSET 24.3286 1.87007e-05 0.0
							CHANNELS 6 Xposition Yposition Zposition Zrotation Xrotation Yrotation 
							JOINT Hand_L
							{
								OFFSET 22.2916 0.0 0.0
								CHANNELS 6 Xposition Yposition Zposition Zrotation Xrotation Yrotation 
								End Site
								{
									OFFSET 0.0 0.0 0.0
								}
							}
						}
					}
				}
				JOINT Shoulder_R
				{
					OFFSET 12.9945 -0.242716 -4.98039
					CHANNELS 6 Xposition Yposition Zposition Zrotation Xrotation Yrotation 
					JOINT UpperArm_R
					{
						OFFSET -5.34813 0.0 0.0
						CHANNELS 6 Xposition Yposition Zposition Zrotation Xrotation Yrotation 
						JOINT LowerArm_R
						{
							OFFSET -24.3289 0.000322201 0.0
							CHANNELS 6 Xposition Yposition Zposition Zrotation Xrotation Yrotation 
							JOINT Hand_R
							{
								OFFSET -22.2915 -0.000108084 0.0
								CHANNELS 6 Xposition Yposition Zposition Zrotation Xrotation Yrotation 
								End Site
								{
									OFFSET 0.0 0.0 0.0
								}
							}
						}
					}
				}
			}
		}
		JOINT UpperLeg_L
		{
			OFFSET -2.19248 -6.46944 0.0
			CHANNELS 6 Xposition Yposition Zposition Zrotation Xrotation Yrotation 
			JOINT LowerLeg_L
			{
				OFFSET 39.0811 0.0 -1.23785e-05
				CHANNELS 6 Xposition Yposition Zposition Zrotation Xrotation Yrotation 
				JOINT Foot_L
				{
					OFFSET 40.9854 0.0 -1.26872e-05
					CHANNELS 6 Xposition Yposition Zposition Zrotation Xrotation Yrotation 
					JOINT Toes_L
					{
						OFFSET 11.7543 0.0 0.0
						CHANNELS 6 Xposition Yposition Zposition Zrotation Xrotation Yrotation 
						End Site
						{
							OFFSET 0.0 0.0 0.0
						}
					}
				}
			}
		}
		JOINT UpperLeg_R
		{
			OFFSET -2.19251 6.46944 0.0
			CHANNELS 6 Xposition Yposition Zposition Zrotation Xrotation Yrotation 
			JOINT LowerLeg_R
			{
				OFFSET -39.0811 -0.00228153 -0.0401928
				CHANNELS 6 Xposition Yposition Zposition Zrotation Xrotation Yrotation 
				JOINT Foot_R
				{
					OFFSET -40.9854 0.0 0.0
					CHANNELS 6 Xposition Yposition Zposition Zrotation Xrotation Yrotation 
					JOINT Toes_R
					{
						OFFSET -11.7543 0.0 0.0
						CHANNELS 6 Xposition Yposition Zposition Zrotation Xrotation Yrotation 
						End Site
						{
							OFFSET 0.0 0.0 0.0
						}
					}
				}
			}
		}
	}
}
MOTION
Frames:	6
Frame Time:	0.0333333
0.000000 0.000000 0.000000 0.000000 0.000000 -0.000000 -0.854102 92.100600 -1.012680 87.697400 -2.412900 1.837380 15.735700 0.000005 -0.000001 85.067600 85.980400 -84.415600 8.984550 -0.406207 -0.000000 0.247920 -0.733780 1.304790 16.377300 -0.000001 -0.000001 0.143342 -2.370330 0.568236 6.456720 -0.000001 -0.000000 2.020550 -1.780170 -2.521040 12.994200 -0.242716 4.980390 -90.054300 0.162446 -71.506700 5.348090 -0.000007 -0.000001 -65.950300 36.846800 -14.457000 24.328600 0.000019 0.000005 2.582120 5.805740 -24.026500 22.291600 -0.000001 0.000005 4.177930 5.575500 -9.971650 12.994500 -0.242716 -4.980390 88.197400 5.188970 -70.813200 -5.348130 -0.000001 -0.000004 -61.722300 38.382700 -11.832400 -24.328900 0.000322 -0.000009 -6.952420 -11.287300 -31.918700 -22.291500 -0.000108 -0.000004 4.140890 5.597640 -11.201600 -2.192480 -6.469440 -0.000000 -169.602000 -14.871000 -2.891310 39.081100 -0.000007 -0.000012 -0.178199 0.465152 20.962000 40.985400 -0.000006 -0.000013 -6.068650 1.959160 -64.489200 11.754300 -0.000000 0.000003 -0.000054 -0.000604 -16.601000 -2.192510 6.469440 -0.000001 174.914000 19.336500 178.532000 -39.081100 -0.002282 -0.040193 -0.050758 0.162518 18.406300 -40.985400 0.000008 0.000006 -3.658120 3.310040 -63.161900 -11.754300 -0.000006 -0.000006 -0.005109 -0.062519 -19.116900
0.000000 0.000000 0.000000 0.000000 0.000000 -0.000000 -0.840134 92.107300 -1.065340 87.696000 -2.561000 1.895880 15.735700 0.000005 -0.000001 85.713800 85.909700 -85.011300 8.984550 -0.406207 -0.000000 0.396218 -0.656389 1.406270 16.377300 -0.000001 -0.000001 0.126641 -2.158150 0.654297 6.456720 -0.000001 -0.000000 2.005880 -1.539480 -2.101850 12.994200 -0.242716 4.980390 -90.105600 0.309813 -71.188000 5.348090 -0.000007 -0.000001 -65.476700 34.014600 -14.272900 24.328600 0.000019 0.000005 2.728290 5.904440 -24.855200 22.291600 -0.000001 0.000005 4.623670 5.578840 -10.150600 12.994500 -0.242716 -4.980390 88.311800 4.817220 -70.660300 -5.348130 -0.000001 -0.000004 -60.173700 41.084600 -11.083600 -24.328900 0.000322 -0.000009 -8.352100 -11.102500 -37.314000 -22.291500 -0.000108 -0.000004 3.053090 5.600300 -11.362400 -2.192480 -6.469440 -0.000000 -169.593000 -15.023400 -2.834440 39.081100 -0.000007 -0.000012 -0.178277 0.465434 20.958800 40.985400 -0.000006 -0.000013 -6.056840 1.922820 -64.458600 11.754300 -0.000000 0.000003 -0.000050 -0.000565 -16.599500 -2.192510 6.469440 -0.000001 174.901000 19.277800 178.546000 -39.081100 -0.002282 -0.040193 -0.050814 0.162909 18.382800 -40.985400 0.000008 0.000006 -3.676970 3.389850 -63.094100 -11.754300 -0.000006 -0.000006 -0.005002 -0.061486 -19.074800
0.000000 0.000000 0.000000 0.000000 0.000000 -0.000000 -0.838988 92.108200 -1.122240 87.698000 -2.598030 1.876040 15.735700 0.000005 -0.000001 85.945500 85.877400 -85.172000 8.984550 -0.406207 -0.000000 0.463398 -0.632085 1.548540 16.377300 -0.000001 -0.000001 0.211129 -2.003500 0.754018 6.456720 -0.000001 -0.000000 2.002280 -1.381820 -1.621530 12.994200 -0.242716 4.980390 -90.148000 0.427303 -70.896600 5.348090 -0.000007 -0.000001 -63.886000 30.963000 -14.722900 24.328600 0.000019 0.000005 2.817090 5.846440 -25.783200 22.291600 -0.000001 0.000005 4.626000 5.578170 -10.114400 12.994500 -0.242716 -4.980390 88.467900 4.320480 -70.453700 -5.348130 -0.000001 -0.000004 -58.243600 44.114800 -10.154800 -24.328900 0.000322 -0.000009 -9.497850 -10.106800 -43.632800 -22.291500 -0.000108 -0.000004 2.044470 5.601450 -11.429400 -2.192480 -6.469440 -0.000000 -169.627000 -14.917000 -2.904990 39.081100 -0.000007 -0.000012 -0.177834 0.463593 20.987100 40.985400 -0.000006 -0.000013 -6.072310 1.787410 -64.453400 11.754300 -0.000000 0.000003 -0.000052 -0.000582 -16.600100 -2.192510 6.469440 -0.000001 174.895000 19.309900 178.478000 -39.081100 -0.002282 -0.040193 -0.052410 0.167666 18.387400 -40.985400 0.000008 0.000006 -3.733220 3.493110 -63.042900 -11.754300 -0.000006 -0.000006 -0.005099 -0.062416 -19.112700
0.000000 0.000000 0.000000 0.000000 0.000000 -0.000000 -0.834702 92.112600 -1.160410 87.712300 -2.542010 1.935420 15.735700 0.000005 -0.000001 86.094000 85.808300 -85.224000 8.984550 -0.406207 -0.000000 0.603296 -0.625256 1.741990 16.377300 -0.000001 -0.000001 0.256841 -1.914590 0.828789 6.456720 -0.000001 -0.000000 2.047460 -1.226110 -1.125720 12.994200 -0.242716 4.980390 -90.159800 0.455209 -70.659600 5.348090 -0.000007 -0.000001 -61.384200 27.394500 -15.885600 24.328600 0.000019 0.000005 2.853420 5.716300 -26.584400 22.291600 -0.000001 0.000005 5.057960 5.580280 -10.226600 12.994500 -0.242716 -4.980390 88.651100 3.753500 -70.216800 -5.348130 -0.000001 -0.000004 -55.837000 47.200100 -9.157730 -24.328900 0.000322 -0.000009 -10.155700 -8.436110 -50.680400 -22.291500 -0.000108 -0.000004 0.762437 5.604550 -11.619700 -2.192480 -6.469440 -0.000000 -169.625000 -14.912200 -2.861790 39.081100 -0.000007 -0.000012 -0.177988 0.464669 20.959200 40.985400 -0.000006 -0.000013 -6.053320 1.869410 -64.412400 11.754300 -0.000000 0.000003 -0.000040 -0.000467 -16.595800 -2.192510 6.469440 -0.000001 174.867000 19.381600 178.509000 -39.081100 -0.002282 -0.040193 -0.051569 0.164951 18.406600 -40.985400 0.000008 0.000006 -3.688050 3.492890 -63.029600 -11.754300 -0.000006 -0.000006 -0.005063 -0.062072 -19.098700
0.000000 0.000000 0.000000 0.000000 0.000000 -0.000000 -0.840761 92.103400 -1.193730 87.739900 -2.388650 2.040600 15.735700 0.000005 -0.000001 85.948600 85.734600 -84.956000 8.984550 -0.406207 -0.000000 0.750116 -0.663257 1.987940 16.377300 -0.000001 -0.000001 0.375166 -1.886680 0.966706 6.456720 -0.000001 -0.000000 2.028450 -1.141800 -0.685811 12.994200 -0.242716 4.980390 -90.125600 0.353626 -70.453400 5.348090 -0.000007 -0.000001 -58.463700 23.105900 -17.433700 24.328600 0.000019 0.000005 2.416310 4.707230 -27.212600 22.291600 -0.000001 0.000005 5.785470 5.584080 -10.429900 12.994500 -0.242716 -4.980390 88.851200 3.133350 -69.853100 -5.348130 -0.000001 -0.000004 -52.982600 50.352100 -8.258680 -24.328900 0.000322 -0.000009 -11.313800 -7.129810 -58.183100 -22.291500 -0.000108 -0.000004 -0.599541 5.605160 -11.652000 -2.192480 -6.469440 -0.000000 -169.630000 -14.924400 -2.877680 39.081100 -0.000007 -0.000012 -0.176786 0.459103 21.060400 40.985400 -0.000006 -0.000013 -6.009910 2.031060 -64.398200 11.754300 -0.000000 0.000003 -0.000056 -0.000620 -16.601600 -2.192510 6.469440 -0.000001 174.812000 19.384300 178.575000 -39.081100 -0.002282 -0.040193 -0.054664 0.173324 18.498600 -40.985400 0.000008 0.000006 -3.769540 3.362930 -63.074900 -11.754300 -0.000006 -0.000006 -0.004931 -0.060800 -19.046800
0.000000 0.000000 0.000000 0.000000 0.000000 -0.000000 -0.858761 92.108100 -1.210720 87.769400 -2.113030 2.120300 15.735700 0.000005 -0.000001 85.123600 85.677700 -83.989000 8.984550 -0.406207 -0.000000 0.856315 -0.802957 2.273370 16.377300 -0.000001 -0.000001 0.508885 -1.927870 1.090070 6.456720 -0.000001 -0.000000 2.048160 -1.066340 -0.115566 12.994200 -0.242716 4.980390 -90.007200 0.020285 -70.361800 5.348090 -0.000007 -0.000001 -55.735100 17.619600 -19.038600 24.328600 0.000019 0.000005 2.228930 4.182050 -28.089700 22.291600 -0.000001 0.000005 6.577430 5.582810 -10.362100 12.994500 -0.242716 -4.980390 89.067100 2.494470 -69.487100 -5.348130 -0.000001 -0.000004 -50.154000 53.198800 -7.334170 -24.328900 0.000322 -0.000009 -10.620400 -4.937890 -65.354600 -22.291500 -0.000108 -0.000004 -1.517770 5.605080 -11.650800 -2.192480 -6.469440 -0.000000 -169.630000 -14.808000 -2.840450 39.081100 -0.000007 -0.000012 -0.177440 0.462109 21.006000 40.985400 -0.000006 -0.000013 -5.987380 2.200160 -64.327100 11.754300 -0.000000 0.000003 -0.000053 -0.000597 -16.600700 -2.192510 6.469440 -0.000001 174.780000 19.463800 178.673000 -39.081100 -0.002282 -0.040193 -0.053170 0.168714 18.513200 -40.985400 0.000008 0.000006 -3.729110 3.168470 -63.109200 -11.754300 -0.000006 -0.000006 -0.004797 -0.059484 -18.993200
